<svg width="206" height="47" viewBox="0 0 206 47" fill="none" xmlns="http://www.w3.org/2000/svg">
<rect width="206" height="47" rx="23.5" fill="url(#paint0_linear_284_47)"/>
<g transform="translate(29, 16) scale(0.3)">
<path d="M41.83 5.8H48.67L39.16 40.21H32.27L24.41 15.7L16.55 40.21H9.56L0 5.8H7.09L13.4 29.48L21.02 5.8H27.96L35.63 29.58L41.84 5.8H41.83Z" fill="#F9F9F9"/>
<path d="M73.16 20.78C73.16 20.78 73.12 20.7 73.08 20.7C67.66 20.12 63.12 16.61 61.08 11.78C60.53 10.48 60.1599 9.08 60.0099 7.62C60.0099 7.62 59.97 7.54 59.93 7.54C59.89 7.54 59.8499 7.58 59.8499 7.62C59.6899 9.08 59.3299 10.48 58.7799 11.78C56.7399 16.61 52.1999 20.12 46.7799 20.7C46.7799 20.7 46.7 20.74 46.7 20.78C46.7 20.82 46.7399 20.86 46.7799 20.86C52.1999 21.44 56.7399 24.95 58.7799 29.78C59.3299 31.08 59.6999 32.48 59.8499 33.94C59.8499 33.99 59.89 34.02 59.93 34.02C59.97 34.02 60.0099 33.98 60.0099 33.94C60.1699 32.48 60.53 31.08 61.08 29.78C63.12 24.95 67.66 21.44 73.08 20.86C73.08 20.86 73.16 20.82 73.16 20.78Z" fill="#FFD800"/>
<path d="M73.5699 10.6C73.5699 10.6 73.5699 10.58 73.5499 10.58C72.1299 10.43 70.9399 9.51 70.4099 8.25C70.2699 7.91 70.1699 7.54 70.1299 7.16C70.1299 7.15 70.1299 7.14 70.1099 7.14C70.0899 7.14 70.0899 7.14 70.0899 7.16C70.0499 7.54 69.9499 7.91 69.8099 8.25C69.2799 9.51 68.0899 10.43 66.6699 10.58C66.6599 10.58 66.6499 10.58 66.6499 10.6C66.6499 10.62 66.6499 10.62 66.6699 10.62C68.0899 10.77 69.2799 11.69 69.8099 12.95C69.9499 13.29 70.0499 13.66 70.0899 14.04C70.0899 14.04 70.0899 14.06 70.1099 14.06C70.1299 14.06 70.1299 14.06 70.1299 14.04C70.1699 13.66 70.2699 13.29 70.4099 12.95C70.9399 11.69 72.1299 10.77 73.5499 10.62C73.5599 10.62 73.5699 10.62 73.5699 10.6Z" fill="#FFD800"/>
<path d="M76 32.64C76 32.64 75.98 32.6 75.96 32.6C73.55 32.34 71.53 30.78 70.62 28.63C70.38 28.05 70.21 27.43 70.14 26.78C70.14 26.76 70.12 26.74 70.1 26.74C70.08 26.74 70.06 26.76 70.06 26.78C69.99 27.43 69.83 28.05 69.58 28.63C68.67 30.78 66.65 32.34 64.24 32.6C64.22 32.6 64.2 32.62 64.2 32.64C64.2 32.66 64.22 32.68 64.24 32.68C66.65 32.94 68.67 34.5 69.58 36.65C69.82 37.23 69.99 37.85 70.06 38.5C70.06 38.5 70.08 38.54 70.1 38.54C70.12 38.54 70.14 38.52 70.14 38.5C70.21 37.85 70.37 37.23 70.62 36.65C71.53 34.5 73.55 32.94 75.96 32.68C75.98 32.68 76 32.66 76 32.64Z" fill="#FFD800"/>
</g>
<path d="M73.6446 29.256C72.4926 29.256 71.5006 29.016 70.6686 28.536C69.8472 28.056 69.2126 27.3733 68.7646 26.488C68.3272 25.6027 68.1086 24.552 68.1086 23.336C68.1086 22.12 68.3272 21.0693 68.7646 20.184C69.2126 19.288 69.8472 18.6 70.6686 18.12C71.5006 17.6293 72.4926 17.384 73.6446 17.384C74.7966 17.384 75.7832 17.6293 76.6046 18.12C77.4366 18.6 78.0712 19.288 78.5086 20.184C78.9566 21.0693 79.1806 22.12 79.1806 23.336C79.1806 24.552 78.9566 25.6027 78.5086 26.488C78.0712 27.3733 77.4366 28.056 76.6046 28.536C75.7832 29.016 74.7966 29.256 73.6446 29.256ZM73.6286 27.208C74.2686 27.208 74.8126 27.0587 75.2606 26.76C75.7192 26.4507 76.0659 26.008 76.3006 25.432C76.5459 24.856 76.6686 24.1573 76.6686 23.336C76.6686 22.5147 76.5459 21.816 76.3006 21.24C76.0659 20.6533 75.7192 20.2053 75.2606 19.896C74.8126 19.5867 74.2686 19.432 73.6286 19.432C72.9992 19.432 72.4606 19.5867 72.0126 19.896C71.5646 20.2053 71.2179 20.6533 70.9726 21.24C70.7379 21.816 70.6206 22.5147 70.6206 23.336C70.6206 24.1573 70.7379 24.856 70.9726 25.432C71.2179 26.008 71.5646 26.4507 72.0126 26.76C72.4712 27.0587 73.0099 27.208 73.6286 27.208ZM80.7544 31.4V20.424H83.0584L83.1064 22.232L82.9144 22.152C83.1278 21.5333 83.4744 21.0587 83.9544 20.728C84.4344 20.3973 84.9944 20.232 85.6344 20.232C86.4344 20.232 87.1011 20.4293 87.6344 20.824C88.1678 21.2187 88.5678 21.7573 88.8344 22.44C89.1118 23.112 89.2504 23.8693 89.2504 24.712C89.2504 25.544 89.1118 26.3013 88.8344 26.984C88.5678 27.6667 88.1624 28.2053 87.6184 28.6C87.0851 28.9947 86.4184 29.192 85.6184 29.192C85.2024 29.192 84.8131 29.1173 84.4504 28.968C84.0878 28.808 83.7731 28.5893 83.5064 28.312C83.2504 28.0347 83.0638 27.704 82.9464 27.32L83.1544 27.192V31.4H80.7544ZM84.9624 27.352C85.5278 27.352 85.9704 27.1173 86.2904 26.648C86.6211 26.1787 86.7864 25.5333 86.7864 24.712C86.7864 23.8907 86.6211 23.2453 86.2904 22.776C85.9704 22.3067 85.5278 22.072 84.9624 22.072C84.5891 22.072 84.2638 22.1733 83.9864 22.376C83.7198 22.568 83.5118 22.8613 83.3624 23.256C83.2238 23.6507 83.1544 24.136 83.1544 24.712C83.1544 25.288 83.2238 25.7733 83.3624 26.168C83.5118 26.5627 83.7198 26.8613 83.9864 27.064C84.2638 27.256 84.5891 27.352 84.9624 27.352ZM94.4348 29.192C93.5601 29.192 92.7975 29.0107 92.1468 28.648C91.5068 28.2747 91.0055 27.752 90.6428 27.08C90.2908 26.408 90.1148 25.6187 90.1148 24.712C90.1148 23.8053 90.2908 23.0213 90.6428 22.36C91.0055 21.688 91.5068 21.1653 92.1468 20.792C92.7868 20.4187 93.5441 20.232 94.4188 20.232C95.2721 20.232 96.0135 20.4187 96.6428 20.792C97.2721 21.1653 97.7575 21.6987 98.0988 22.392C98.4508 23.0853 98.6268 23.912 98.6268 24.872V25.352H92.5948C92.6268 26.0347 92.8081 26.5413 93.1388 26.872C93.4801 27.2027 93.9281 27.368 94.4828 27.368C94.8881 27.368 95.2241 27.2827 95.4908 27.112C95.7681 26.9413 95.9655 26.68 96.0828 26.328L98.4988 26.472C98.2748 27.3253 97.8001 27.992 97.0748 28.472C96.3495 28.952 95.4695 29.192 94.4348 29.192ZM92.5948 23.88H96.1628C96.1308 23.2507 95.9548 22.7813 95.6348 22.472C95.3255 22.1627 94.9201 22.008 94.4188 22.008C93.9175 22.008 93.5015 22.1733 93.1708 22.504C92.8508 22.824 92.6588 23.2827 92.5948 23.88ZM99.9501 29V20.424H102.11L102.206 22.936L101.902 22.856C101.987 22.216 102.158 21.704 102.414 21.32C102.681 20.936 103.011 20.6587 103.406 20.488C103.801 20.3173 104.233 20.232 104.702 20.232C105.321 20.232 105.843 20.3653 106.27 20.632C106.707 20.8987 107.038 21.2773 107.262 21.768C107.497 22.248 107.614 22.8187 107.614 23.48V29H105.214V24.28C105.214 23.8213 105.177 23.432 105.102 23.112C105.027 22.792 104.894 22.552 104.702 22.392C104.51 22.2213 104.243 22.136 103.902 22.136C103.401 22.136 103.017 22.3227 102.75 22.696C102.483 23.0587 102.35 23.5867 102.35 24.28V29H99.9501ZM113.052 29V20.424H115.452V29H113.052ZM113.004 19.368V17.448H115.484V19.368H113.004ZM117.501 29V20.424H119.661L119.757 22.936L119.453 22.856C119.539 22.216 119.709 21.704 119.965 21.32C120.232 20.936 120.563 20.6587 120.957 20.488C121.352 20.3173 121.784 20.232 122.253 20.232C122.872 20.232 123.395 20.3653 123.821 20.632C124.259 20.8987 124.589 21.2773 124.813 21.768C125.048 22.248 125.165 22.8187 125.165 23.48V29H122.765V24.28C122.765 23.8213 122.728 23.432 122.653 23.112C122.579 22.792 122.445 22.552 122.253 22.392C122.061 22.2213 121.795 22.136 121.453 22.136C120.952 22.136 120.568 22.3227 120.301 22.696C120.035 23.0587 119.901 23.5867 119.901 24.28V29H117.501ZM135.547 29.256C134.513 29.256 133.59 29.0213 132.779 28.552C131.979 28.0827 131.35 27.4053 130.891 26.52C130.443 25.6347 130.219 24.5733 130.219 23.336C130.219 22.1307 130.438 21.0853 130.875 20.2C131.313 19.304 131.937 18.6107 132.747 18.12C133.558 17.6293 134.507 17.384 135.595 17.384C137.078 17.384 138.23 17.752 139.051 18.488C139.883 19.2133 140.417 20.2533 140.651 21.608L138.123 21.704C137.995 20.9893 137.718 20.4347 137.291 20.04C136.865 19.6347 136.299 19.432 135.595 19.432C134.987 19.432 134.47 19.592 134.043 19.912C133.617 20.232 133.291 20.6853 133.067 21.272C132.843 21.8587 132.731 22.5467 132.731 23.336C132.731 24.136 132.843 24.8293 133.067 25.416C133.302 25.992 133.633 26.4347 134.059 26.744C134.486 27.0533 134.993 27.208 135.579 27.208C136.347 27.208 136.939 26.9947 137.355 26.568C137.782 26.1307 138.049 25.528 138.155 24.76L140.699 24.856C140.55 25.784 140.257 26.5733 139.819 27.224C139.382 27.8747 138.806 28.376 138.091 28.728C137.387 29.08 136.539 29.256 135.547 29.256ZM149.941 29.192C149.066 29.192 148.303 29.0107 147.653 28.648C147.002 28.2747 146.495 27.752 146.133 27.08C145.77 26.408 145.589 25.6187 145.589 24.712C145.589 23.8053 145.77 23.0213 146.133 22.36C146.495 21.688 147.002 21.1653 147.653 20.792C148.303 20.4187 149.066 20.232 149.941 20.232C150.815 20.232 151.578 20.4187 152.229 20.792C152.879 21.1653 153.386 21.688 153.749 22.36C154.111 23.0213 154.293 23.8053 154.293 24.712C154.293 25.6187 154.111 26.408 153.749 27.08C153.386 27.752 152.879 28.2747 152.229 28.648C151.578 29.0107 150.815 29.192 149.941 29.192ZM149.941 27.352C150.538 27.352 151.002 27.1227 151.333 26.664C151.663 26.1947 151.829 25.544 151.829 24.712C151.829 23.88 151.663 23.2347 151.333 22.776C151.002 22.3067 150.538 22.072 149.941 22.072C149.343 22.072 148.879 22.3067 148.549 22.776C148.218 23.2347 148.053 23.88 148.053 24.712C148.053 25.544 148.218 26.1947 148.549 26.664C148.879 27.1227 149.343 27.352 149.941 27.352ZM156.823 29V20.424H159.095L159.175 22.92L158.999 22.872C159.137 22.008 159.383 21.384 159.735 21C160.087 20.616 160.572 20.424 161.191 20.424H161.975V22.408H161.191C160.743 22.408 160.375 22.4667 160.087 22.584C159.799 22.7013 159.58 22.888 159.431 23.144C159.292 23.4 159.223 23.7467 159.223 24.184V29H156.823ZM163.595 29V17.64H165.995V22.696L165.579 22.376C165.89 21.9173 166.302 21.5707 166.811 21.336C167.331 21.1013 167.931 20.984 168.611 20.984C169.411 20.984 170.086 21.1733 170.635 21.552C171.184 21.9307 171.596 22.456 171.867 23.128C172.149 23.8 172.291 24.5733 172.291 25.448C172.291 26.3227 172.149 27.0907 171.867 27.752C171.596 28.4133 171.184 28.9333 170.635 29.312C170.086 29.6907 169.411 29.88 168.611 29.88C167.952 29.88 167.363 29.7627 166.843 29.528C166.334 29.2933 165.922 28.952 165.611 28.504L165.995 28.2V29H163.595ZM167.923 27.84C168.488 27.84 168.936 27.6053 169.267 27.136C169.608 26.6667 169.779 26.0267 169.779 25.216C169.779 24.3947 169.608 23.7493 169.267 23.28C168.936 22.8107 168.488 22.576 167.923 22.576C167.539 22.576 167.214 22.6827 166.947 22.896C166.68 23.0987 166.478 23.3973 166.339 23.792C166.2 24.176 166.131 24.6507 166.131 25.216C166.131 25.7813 166.2 26.256 166.339 26.64C166.478 27.024 166.68 27.3173 166.947 27.52C167.214 27.7227 167.539 27.824 167.923 27.824V27.84ZM173.771 29V17.64H176.171V22.376L175.771 22.696C176.071 22.2053 176.486 21.8373 177.019 21.592C177.563 21.336 178.177 21.208 178.867 21.208C179.667 21.208 180.369 21.4053 180.971 21.8C181.574 22.1947 182.041 22.7573 182.371 23.488C182.702 24.208 182.867 25.048 182.867 26.008C182.867 26.968 182.702 27.808 182.371 28.528C182.041 29.248 181.574 29.8053 180.971 30.2C180.369 30.5947 179.667 30.792 178.867 30.792C178.188 30.792 177.579 30.6693 177.043 30.424C176.507 30.1787 176.081 29.8213 175.771 29.352L176.171 29.672V31.4H173.771V29ZM178.195 28.744C178.75 28.744 179.198 28.5093 179.539 28.04C179.881 27.5707 180.051 26.9253 180.051 26.104C180.051 25.2827 179.881 24.6373 179.539 24.168C179.198 23.6987 178.75 23.464 178.195 23.464C177.822 23.464 177.497 23.5653 177.219 23.768C176.953 23.9707 176.75 24.264 176.611 24.648C176.473 25.032 176.403 25.496 176.403 26.04C176.403 26.584 176.473 27.048 176.611 27.432C176.75 27.816 176.953 28.1093 177.219 28.312C177.497 28.5147 177.822 28.616 178.195 28.616V28.744ZM189.115 29.192C188.241 29.192 187.478 29.0107 186.827 28.648C186.187 28.2747 185.686 27.752 185.323 27.08C184.971 26.408 184.795 25.6187 184.795 24.712C184.795 23.8053 184.971 23.0213 185.323 22.36C185.686 21.688 186.187 21.1653 186.827 20.792C187.467 20.4187 188.225 20.232 189.099 20.232C189.953 20.232 190.694 20.4187 191.323 20.792C191.953 21.1653 192.438 21.6987 192.779 22.392C193.131 23.0853 193.307 23.912 193.307 24.872V25.352H187.275C187.307 26.0347 187.489 26.5413 187.819 26.872C188.161 27.2027 188.609 27.368 189.163 27.368C189.569 27.368 189.905 27.2827 190.171 27.112C190.449 26.9413 190.646 26.68 190.763 26.328L193.179 26.472C192.955 27.3253 192.481 27.992 191.755 28.472C191.03 28.952 190.15 29.192 189.115 29.192ZM187.275 23.88H190.843C190.811 23.2507 190.635 22.7813 190.315 22.472C190.006 22.1627 189.601 22.008 189.099 22.008C188.598 22.008 188.182 22.1733 187.851 22.504C187.531 22.824 187.339 23.2827 187.275 23.88ZM194.631 29V20.424H196.791L196.887 22.936L196.583 22.856C196.669 22.216 196.839 21.704 197.095 21.32C197.362 20.936 197.693 20.6587 198.087 20.488C198.482 20.3173 198.914 20.232 199.383 20.232C200.002 20.232 200.525 20.3653 200.951 20.632C201.389 20.8987 201.719 21.2773 201.943 21.768C202.178 22.248 202.295 22.8187 202.295 23.48V29H199.895V24.28C199.895 23.8213 199.858 23.432 199.783 23.112C199.709 22.792 199.575 22.552 199.383 22.392C199.191 22.2213 198.925 22.136 198.583 22.136C198.082 22.136 197.698 22.3227 197.431 22.696C197.165 23.0587 197.031 23.5867 197.031 24.28V29H194.631ZM207.739 29.192C206.918 29.192 206.198 29.0107 205.579 28.648C204.971 28.2747 204.497 27.752 204.155 27.08C203.814 26.408 203.643 25.6187 203.643 24.712C203.643 23.8053 203.814 23.0213 204.155 22.36C204.497 21.688 204.971 21.1653 205.579 20.792C206.187 20.4187 206.907 20.232 207.739 20.232C208.473 20.232 209.115 20.3973 209.667 20.728C210.219 21.048 210.651 21.4933 210.963 22.064C211.275 22.6347 211.431 23.2827 211.431 24.008V24.376H208.955V24.008C208.955 23.5173 208.835 23.144 208.595 22.888C208.355 22.632 208.027 22.504 207.611 22.504C207.131 22.504 206.755 22.712 206.483 23.128C206.211 23.544 206.075 24.072 206.075 24.712C206.075 25.352 206.211 25.88 206.483 26.296C206.755 26.712 207.131 26.92 207.611 26.92C208.027 26.92 208.355 26.792 208.595 26.536C208.835 26.28 208.955 25.9067 208.955 25.416V25.048H211.431V25.416C211.431 26.1427 211.275 26.7907 210.963 27.36C210.651 27.9293 210.219 28.376 209.667 28.696C209.115 29.016 208.473 29.176 207.739 29.176V29.192ZM212.871 29V17.64H215.271V22.36L214.871 22.68C215.182 22.2213 215.597 21.8533 216.115 21.576C216.644 21.2987 217.254 21.16 217.943 21.16C218.743 21.16 219.446 21.3573 220.051 21.752C220.657 22.1467 221.126 22.712 221.459 23.448C221.793 24.184 221.959 25.048 221.959 26.04C221.959 27.032 221.793 27.896 221.459 28.632C221.126 29.368 220.657 29.9333 220.051 30.328C219.446 30.7227 218.743 30.92 217.943 30.92C217.264 30.92 216.665 30.7973 216.147 30.552C215.629 30.3067 215.204 29.9493 214.871 29.48L215.271 29.8V31.4H212.871V29ZM217.195 28.808C217.761 28.808 218.214 28.5733 218.555 28.104C218.897 27.6347 219.067 26.9893 219.067 26.168C219.067 25.3467 218.897 24.7013 218.555 24.232C218.214 23.7627 217.761 23.528 217.195 23.528C216.822 23.528 216.497 23.6293 216.219 23.832C215.953 24.0347 215.75 24.328 215.611 24.712C215.473 25.096 215.403 25.56 215.403 26.104C215.403 26.648 215.473 27.112 215.611 27.496C215.75 27.88 215.953 28.1733 216.219 28.376C216.497 28.5787 216.822 28.68 217.195 28.68V28.808Z" fill="white"/>
<defs>
<linearGradient id="paint0_linear_284_47" x1="0" y1="23.5" x2="206" y2="23.5" gradientUnits="userSpaceOnUse">
<stop stop-color="#9900B1"/>
<stop offset="1" stop-color="#7511E2"/>
</linearGradient>
</defs>
</svg>