<svg width="48" height="29" viewBox="0 0 76 46" fill="none" xmlns="http://www.w3.org/2000/svg">
<path d="M41.83 5.8H48.67L39.16 40.21H32.27L24.41 15.7L16.55 40.21H9.56L0 5.8H7.09L13.4 29.48L21.02 5.8H27.96L35.63 29.58L41.84 5.8H41.83Z" fill="#F9F9F9"/>
<path d="M73.16 20.78C73.16 20.78 73.12 20.7 73.08 20.7C67.66 20.12 63.12 16.61 61.08 11.78C60.53 10.48 60.1599 9.08 60.0099 7.62C60.0099 7.62 59.97 7.54 59.93 7.54C59.89 7.54 59.8499 7.58 59.8499 7.62C59.6899 9.08 59.3299 10.48 58.7799 11.78C56.7399 16.61 52.1999 20.12 46.7799 20.7C46.7799 20.7 46.7 20.74 46.7 20.78C46.7 20.82 46.7399 20.86 46.7799 20.86C52.1999 21.44 56.7399 24.95 58.7799 29.78C59.3299 31.08 59.6999 32.48 59.8499 33.94C59.8499 33.99 59.89 34.02 59.93 34.02C59.97 34.02 60.0099 33.98 60.0099 33.94C60.1699 32.48 60.53 31.08 61.08 29.78C63.12 24.95 67.66 21.44 73.08 20.86C73.08 20.86 73.16 20.82 73.16 20.78Z" fill="#FFD800"/>
<path d="M73.5699 10.6C73.5699 10.6 73.5699 10.58 73.5499 10.58C72.1299 10.43 70.9399 9.51 70.4099 8.25C70.2699 7.91 70.1699 7.54 70.1299 7.16C70.1299 7.15 70.1299 7.14 70.1099 7.14C70.0899 7.14 70.0899 7.14 70.0899 7.16C70.0499 7.54 69.9499 7.91 69.8099 8.25C69.2799 9.51 68.0899 10.43 66.6699 10.58C66.6599 10.58 66.6499 10.58 66.6499 10.6C66.6499 10.62 66.6499 10.62 66.6699 10.62C68.0899 10.77 69.2799 11.69 69.8099 12.95C69.9499 13.29 70.0499 13.66 70.0899 14.04C70.0899 14.04 70.0899 14.06 70.1099 14.06C70.1299 14.06 70.1299 14.06 70.1299 14.04C70.1699 13.66 70.2699 13.29 70.4099 12.95C70.9399 11.69 72.1299 10.77 73.5499 10.62C73.5599 10.62 73.5699 10.62 73.5699 10.6Z" fill="#FFD800"/>
<path d="M76 32.64C76 32.64 75.98 32.6 75.96 32.6C73.55 32.34 71.53 30.78 70.62 28.63C70.38 28.05 70.21 27.43 70.14 26.78C70.14 26.76 70.12 26.74 70.1 26.74C70.08 26.74 70.06 26.76 70.06 26.78C69.99 27.43 69.83 28.05 69.58 28.63C68.67 30.78 66.65 32.34 64.24 32.6C64.22 32.6 64.2 32.62 64.2 32.64C64.2 32.66 64.22 32.68 64.24 32.68C66.65 32.94 68.67 34.5 69.58 36.65C69.82 37.23 69.99 37.85 70.06 38.5C70.06 38.5 70.08 38.54 70.1 38.54C70.12 38.54 70.14 38.52 70.14 38.5C70.21 37.85 70.37 37.23 70.62 36.65C71.53 34.5 73.55 32.94 75.96 32.68C75.98 32.68 76 32.66 76 32.64Z" fill="#FFD800"/>
</svg>